#!OML:ASF Y:\EmotionMaleHayes\Project 1\Capture day 1\Session 1\Male1.ASF
:FULLY-SPECIFIED
:DEGREES
35
root -29.3006 17.1115 1.26494 16.7309 85.5561 17.4317
lowerback 6.67797 2.04144 -3.84428
upperback -1.36985 2.37313 -0.532933
thorax -5.30991 1.28562 1.33466
lowerneck -20.5627 2.75836 5.1549
upperneck 21.0952 2.71958 -1.65269
head 10.2376 1.51478 -1.03057
rclavicle 1.63702e-014 -2.56432e-014
rhumerus -37.0359 7.83461 -93.6887
rradius 29.8268
rwrist 5.13407
rhand -9.95742 -32.6063
rfingers 7.12502
rthumb 16.0246 -61.9636
lclavicle 1.63702e-014 -2.56432e-014
lhumerus -34.4067 -7.88252 92.1445
lradius 22.5116
lwrist -16.146
lhand -16.2705 -26.6672
lfingers 7.12502
lthumb 9.93918 3.07819
rfemur 8.07005 -4.04801 12.0925
rtibia 3.05745
rfoot -15.697 -3.03915
rtoes 0.428467
lfemur 12.0042 0.135993 -16.2946
ltibia -1.9966
lfoot -11.8467 12.2959
ltoes -5.02523
36
root -29.2989 17.1122 1.2651 15.6104 85.5774 16.3299
lowerback 6.70336 2.02651 -3.76214
upperback -1.38477 2.35997 -0.500015
thorax -5.33706 1.27748 1.3233
lowerneck -20.4699 2.78041 5.15596
upperneck 21.02 2.74646 -1.62111
head 10.194 1.53077 -1.01638
rclavicle 8.53998e-015 -7.35503e-015
rhumerus -37.0398 7.7939 -93.6502
rradius 29.8283
rwrist 5.00767
rhand -9.83895 -32.5324
rfingers 7.12502
rthumb 16.1387 -61.8805
lclavicle 8.53998e-015 -7.35503e-015
lhumerus -34.4485 -7.87624 92.1657
lradius 22.5117
lwrist -16.0813
lhand -16.3217 -26.6504
lfingers 7.12502
lthumb 9.88983 3.0973
rfemur 8.10097 -3.98778 12.223
rtibia 3.08376
rfoot -15.7812 -3.10912
rtoes 0.624833
lfemur 12.0541 0.0848434 -16.2043
ltibia -2.04547
lfoot -11.9072 12.3312
ltoes -4.98423
37
root -29.2976 17.1108 1.2654 14.3055 85.5845 14.981
lowerback 6.64754 2.00692 -3.66888
upperback -1.38697 2.3459 -0.460623
thorax -5.30447 1.26775 1.3157
lowerneck -20.4586 2.79972 5.13882
upperneck 20.9811 2.77721 -1.61691
head 10.1787 1.54337 -1.00768
rclavicle -2.69105e-014 -1.37161e-014
rhumerus -37.0221 7.85649 -93.6655
rradius 29.8166
rwrist 5.0432
rhand -9.85727 -32.5128
rfingers 7.12502
rthumb 16.1211 -61.8623
lclavicle -2.69105e-014 -1.37161e-014
lhumerus -34.3973 -7.78727 92.1545
lradius 22.4694
lwrist -16.07
lhand -16.3435 -26.6384
lfingers 7.12502
lthumb 9.86881 3.11033
rfemur 8.04128 -3.8895 12.3906
rtibia 3.10313
rfoot -15.8228 -3.22694
rtoes 0.788383
lfemur 12.054 -0.00288742 -16.0959
ltibia -2.09935
lfoot -11.9616 12.3856
ltoes -4.53071
38
root -29.2961 17.1091 1.26455 14.1057 85.5654 14.7175
lowerback 6.57463 2.01254 -3.60676
upperback -1.39912 2.36015 -0.495393
thorax -5.27229 1.27216 1.24546
lowerneck -20.563 2.80365 5.21471
upperneck 21.0773 2.76847 -1.67479
head 10.2344 1.53903 -1.04098
rclavicle -6.13126e-015 -3.37934e-015
rhumerus -37.0006 7.76282 -93.6827
rradius 29.7935
rwrist 5.11577
rhand -9.81921 -32.358
rfingers 7.12502
rthumb 16.1577 -61.7045
lclavicle -6.13126e-015 -3.37934e-015
lhumerus -34.3526 -7.72776 92.0804
lradius 22.4272
lwrist -16.1649
lhand -16.3453 -26.6033
lfingers 7.12502
lthumb 9.86699 3.14549
rfemur 7.96439 -3.88778 12.4018
rtibia 3.11926
rfoot -15.8223 -3.22411
rtoes 0.412042
lfemur 12.0084 -0.127523 -16.1259
ltibia -2.13133
lfoot -11.9313 12.5256
ltoes -4.54751
39
root -29.2965 17.1108 1.26476 13.897 85.5887 14.5448
lowerback 6.6388 2.04164 -3.52567
upperback -1.39707 2.40088 -0.544581
thorax -5.30286 1.28935 1.14211
lowerneck -20.6613 2.7867 5.31138
upperneck 21.1534 2.72119 -1.72315
head 10.2807 1.51966 -1.08024
rclavicle -4.44936e-015 -3.37934e-015
rhumerus -37.0141 7.65277 -93.7326
rradius 29.8414
rwrist 5.15055
rhand -9.81414 -32.4597
rfingers 7.12502
rthumb 16.1626 -61.8058
lclavicle -4.44936e-015 -3.37934e-015
lhumerus -34.3466 -7.69261 91.986
lradius 22.4024
lwrist -16.3517
lhand -16.2864 -26.5892
lfingers 7.12502
lthumb 9.92388 3.15688
rfemur 8.02253 -3.92388 12.4189
rtibia 3.09574
rfoot -15.8498 -3.20546
rtoes 0.0322182
lfemur 12.0425 -0.0692937 -16.0901
ltibia -2.13412
lfoot -11.8281 12.4691
ltoes -5.03896
40
root -29.2962 17.1119 1.26449 13.7932 85.5916 14.4608
lowerback 6.64242 2.04293 -3.55048
upperback -1.3809 2.40231 -0.506353
thorax -5.29085 1.29101 1.19578
lowerneck -20.6113 2.7789 5.25532
upperneck 21.0697 2.72888 -1.72227
head 10.2404 1.51767 -1.07008
rclavicle -7.24943e-015 2.38542e-015
rhumerus -36.9861 7.70299 -93.682
rradius 29.8497
rwrist 4.99575
rhand -9.72271 -32.4297
rfingers 7.12502
rthumb 16.2507 -61.7687
lclavicle -7.24943e-015 2.38542e-015
lhumerus -34.3165 -7.54083 91.981
lradius 22.3861
lwrist -16.4096
lhand -16.1518 -26.5674
lfingers 7.12502
lthumb 10.0537 3.17249
rfemur 8.05188 -3.93621 12.4215
rtibia 3.08186
rfoot -15.8863 -3.168
rtoes 0.356908
lfemur 12.0619 -0.013667 -16.0639
ltibia -2.12564
lfoot -11.8416 12.4201
ltoes -5.06819
